<?xml version="1.0" encoding="UTF-8"?>
<svg version="1.1" xmlns="http://www.w3.org/2000/svg" width="414" height="385">
<path d="M0 0 C7.11994326 3.46845565 12.58047717 9.32344071 18.01171875 14.9765625 C19.65536136 16.64926756 21.28644685 18.11688301 23.125 19.5625 C26.13312423 22.1128662 28.5420797 24.84412118 31.08984375 27.83984375 C33.09419215 30.10651996 35.2057715 32.20363264 37.375 34.3125 C42.34152179 39.21121944 46.65428565 44.55314719 51 50 C52.65693571 52.00840692 54.3278618 54.00422214 56 56 C59.65467999 55.35170394 63.16513522 54.38911956 66.72241211 53.33691406 C74.55723633 51.03991942 82.40444323 49.21161877 90.4375 47.75 C91.3236499 47.58717529 92.2097998 47.42435059 93.12280273 47.2565918 C104.43801186 45.2736659 115.64772725 44.76162844 127.125 44.75 C127.82153687 44.74899292 128.51807373 44.74798584 129.23571777 44.74694824 C152.74163651 44.76971881 177.12794262 47.39602738 199.37109375 55.36328125 C202.44409792 56.10756012 204.03800536 56.11374839 207 55 C209.17765191 52.90513177 209.17765191 52.90513177 211.125 50.1875 C214.43824285 45.93862378 217.83180974 41.88347678 221.5 37.9375 C221.96108154 37.44016357 222.42216309 36.94282715 222.8972168 36.43041992 C223.58424683 35.68949097 223.58424683 35.68949097 224.28515625 34.93359375 C227.57508204 31.37858042 230.80382135 27.77141531 234.02734375 24.15625 C235.96881118 22.03409155 237.88111954 19.94636201 240 18 C240.66 18 241.32 18 242 18 C242 17.34 242 16.68 242 16 C243.73215188 14.20828989 245.62810383 12.67596815 247.546875 11.0859375 C250.06230443 9.00494043 250.06230443 9.00494043 252.453125 6.5390625 C257.7454815 1.51607744 261.40427053 -0.62366278 268.8125 -0.8125 C274.4315048 -0.65263369 277.61454801 0.46314536 282 4 C284.68621992 7.09560208 286.8048789 10.54292602 289 14 C289.54398437 14.82886719 290.08796875 15.65773438 290.6484375 16.51171875 C313.41492963 53.11981056 321.61908031 98.69401809 325 141 C324.96447021 140.40461426 324.92894043 139.80922852 324.89233398 139.19580078 C324.73501206 136.50583226 324.58615438 133.81546083 324.4375 131.125 C324.38142578 130.18785156 324.32535156 129.25070313 324.26757812 128.28515625 C324.21923828 127.38925781 324.17089844 126.49335937 324.12109375 125.5703125 C324.0739624 124.74289551 324.02683105 123.91547852 323.97827148 123.06298828 C324 121 324 121 325 119 C325.66 119 326.32 119 327 119 C328.26439145 121.52878289 328.29047383 123.62012127 328.5 126.4375 C328.73306642 129.56308718 329.00474943 132.01424829 330 135 C330.23607178 137.75786521 330.41967106 140.49469605 330.5546875 143.2578125 C330.59673309 144.0937796 330.63877869 144.9297467 330.68209839 145.79104614 C331.11247995 155.17401226 331.15082793 164.55404997 331.13037109 173.9453125 C331.12496649 176.89328051 331.13038009 179.84109879 331.13671875 182.7890625 C331.14884435 210.31936319 331.14884435 210.31936319 327 220 C326.62033354 221.65672637 326.26239024 223.32070245 326 225 C325.01 224.67 324.02 224.34 323 224 C323.165 222.989375 323.33 221.97875 323.5 220.9375 C324.34762407 214.33558292 324.07784918 207.6431304 324 201 C323.87044922 202.73056641 323.87044922 202.73056641 323.73828125 204.49609375 C319.80626169 251.87766947 303.01248929 297.27975284 267.0625 329.6875 C265.72021024 330.8060748 264.36462869 331.90878969 263 333 C262.05898438 333.76699219 261.11796875 334.53398437 260.1484375 335.32421875 C214.69687382 371.74618474 155.69065957 381.8567727 99 376 C52.72802564 370.37460702 6.7895273 351.0189995 -23 314 C-40.49304816 291.2784518 -59.56009358 256.64177811 -58 227 C-58.99 227.33 -59.98 227.66 -61 228 C-60.70703125 226.01432292 -60.4140625 224.02864583 -60.12109375 222.04296875 C-59.86095201 219.7974658 -59.86095201 219.7974658 -61 217 C-61.66 217.33 -62.32 217.66 -63 218 C-63.042721 216.33388095 -63.04063832 214.66617115 -63 213 C-62.67 212.67 -62.34 212.34 -62 212 C-61.92851801 210.64756083 -61.91600546 209.29165633 -61.9375 207.9375 C-61.958125 206.638125 -61.97875 205.33875 -62 204 C-62.66 203.67 -63.32 203.34 -64 203 C-65.51089043 195.44554787 -65.08989686 187.67119833 -65 180 C-64.67 180 -64.34 180 -64 180 C-63.67 174.72 -63.34 169.44 -63 164 C-63.66 164 -64.32 164 -65 164 C-65.33 164.99 -65.66 165.98 -66 167 C-66 165.02 -66 163.04 -66 161 C-65.34 160.67 -64.68 160.34 -64 160 C-64 155.71 -64 151.42 -64 147 C-64.99 147.99 -64.99 147.99 -66 149 C-65.85975781 146.52039864 -65.7130815 144.04147598 -65.5625 141.5625 C-65.52318359 140.85544922 -65.48386719 140.14839844 -65.44335938 139.41992188 C-65.11328125 134.11328125 -65.11328125 134.11328125 -64 133 C-64.020625 131.865625 -64.04125 130.73125 -64.0625 129.5625 C-64 126 -64 126 -62 124 C-61.5541449 121.89932236 -61.21248153 119.77615486 -60.921875 117.6484375 C-60.73258986 116.32097446 -60.54278922 114.99358485 -60.35253906 113.66625977 C-60.25493286 112.96671173 -60.15732666 112.2671637 -60.0567627 111.54641724 C-55.21029629 77.24074434 -45.68628441 24.6538695 -17.12890625 1.69140625 C-11.55790634 -1.32013303 -6.13914178 -1.08533634 0 0 Z M324 187 C324 190.63 324 194.26 324 198 C326.26609984 193.46780033 325.92735976 191.82227075 325 187 C324.67 187 324.34 187 324 187 Z " fill="#FEFEFE" transform="translate(78,0)"/>
<path d="M0 0 C7.11994326 3.46845565 12.58047717 9.32344071 18.01171875 14.9765625 C19.65536136 16.64926756 21.28644685 18.11688301 23.125 19.5625 C26.13312423 22.1128662 28.5420797 24.84412118 31.08984375 27.83984375 C33.09419215 30.10651996 35.2057715 32.20363264 37.375 34.3125 C42.34152179 39.21121944 46.65428565 44.55314719 51 50 C52.65693571 52.00840692 54.3278618 54.00422214 56 56 C59.65467999 55.35170394 63.16513522 54.38911956 66.72241211 53.33691406 C74.55723633 51.03991942 82.40444323 49.21161877 90.4375 47.75 C91.3236499 47.58717529 92.2097998 47.42435059 93.12280273 47.2565918 C104.43801186 45.2736659 115.64772725 44.76162844 127.125 44.75 C127.82153687 44.74899292 128.51807373 44.74798584 129.23571777 44.74694824 C152.74163651 44.76971881 177.12794262 47.39602738 199.37109375 55.36328125 C202.44409792 56.10756012 204.03800536 56.11374839 207 55 C209.17765191 52.90513177 209.17765191 52.90513177 211.125 50.1875 C214.43824285 45.93862378 217.83180974 41.88347678 221.5 37.9375 C221.96108154 37.44016357 222.42216309 36.94282715 222.8972168 36.43041992 C223.58424683 35.68949097 223.58424683 35.68949097 224.28515625 34.93359375 C227.57508204 31.37858042 230.80382135 27.77141531 234.02734375 24.15625 C235.96881118 22.03409155 237.88111954 19.94636201 240 18 C240.66 18 241.32 18 242 18 C242 17.34 242 16.68 242 16 C243.73215188 14.20828989 245.62810383 12.67596815 247.546875 11.0859375 C250.06230443 9.00494043 250.06230443 9.00494043 252.453125 6.5390625 C257.7454815 1.51607744 261.40427053 -0.62366278 268.8125 -0.8125 C274.4315048 -0.65263369 277.61454801 0.46314536 282 4 C284.68621992 7.09560208 286.8048789 10.54292602 289 14 C289.54398437 14.82886719 290.08796875 15.65773438 290.6484375 16.51171875 C313.41492963 53.11981056 321.61908031 98.69401809 325 141 C324.96447021 140.40461426 324.92894043 139.80922852 324.89233398 139.19580078 C324.73501206 136.50583226 324.58615438 133.81546083 324.4375 131.125 C324.38142578 130.18785156 324.32535156 129.25070313 324.26757812 128.28515625 C324.21923828 127.38925781 324.17089844 126.49335937 324.12109375 125.5703125 C324.0739624 124.74289551 324.02683105 123.91547852 323.97827148 123.06298828 C324 121 324 121 325 119 C325.66 119 326.32 119 327 119 C328.26439145 121.52878289 328.29047383 123.62012127 328.5 126.4375 C328.73306642 129.56308718 329.00474943 132.01424829 330 135 C330.23607178 137.75786521 330.41967106 140.49469605 330.5546875 143.2578125 C330.59673309 144.0937796 330.63877869 144.9297467 330.68209839 145.79104614 C331.11247995 155.17401226 331.15082793 164.55404997 331.13037109 173.9453125 C331.12496649 176.89328051 331.13038009 179.84109879 331.13671875 182.7890625 C331.14884435 210.31936319 331.14884435 210.31936319 327 220 C326.62033354 221.65672637 326.26239024 223.32070245 326 225 C325.01 224.67 324.02 224.34 323 224 C323.165 222.989375 323.33 221.97875 323.5 220.9375 C324.34762407 214.33558292 324.07784918 207.6431304 324 201 C323.87044922 202.73056641 323.87044922 202.73056641 323.73828125 204.49609375 C319.80626169 251.87766947 303.01248929 297.27975284 267.0625 329.6875 C265.72021024 330.8060748 264.36462869 331.90878969 263 333 C262.05898438 333.76699219 261.11796875 334.53398437 260.1484375 335.32421875 C214.69687382 371.74618474 155.69065957 381.8567727 99 376 C52.72802564 370.37460702 6.7895273 351.0189995 -23 314 C-40.49304816 291.2784518 -59.56009358 256.64177811 -58 227 C-58.99 227.33 -59.98 227.66 -61 228 C-60.70703125 226.01432292 -60.4140625 224.02864583 -60.12109375 222.04296875 C-59.86095201 219.7974658 -59.86095201 219.7974658 -61 217 C-61.66 217.33 -62.32 217.66 -63 218 C-63.042721 216.33388095 -63.04063832 214.66617115 -63 213 C-62.67 212.67 -62.34 212.34 -62 212 C-61.92851801 210.64756083 -61.91600546 209.29165633 -61.9375 207.9375 C-61.958125 206.638125 -61.97875 205.33875 -62 204 C-62.66 203.67 -63.32 203.34 -64 203 C-65.51089043 195.44554787 -65.08989686 187.67119833 -65 180 C-64.67 180 -64.34 180 -64 180 C-63.67 174.72 -63.34 169.44 -63 164 C-63.66 164 -64.32 164 -65 164 C-65.33 164.99 -65.66 165.98 -66 167 C-66 165.02 -66 163.04 -66 161 C-65.34 160.67 -64.68 160.34 -64 160 C-64 155.71 -64 151.42 -64 147 C-64.99 147.99 -64.99 147.99 -66 149 C-65.85975781 146.52039864 -65.7130815 144.04147598 -65.5625 141.5625 C-65.52318359 140.85544922 -65.48386719 140.14839844 -65.44335938 139.41992188 C-65.11328125 134.11328125 -65.11328125 134.11328125 -64 133 C-64.020625 131.865625 -64.04125 130.73125 -64.0625 129.5625 C-64 126 -64 126 -62 124 C-61.5541449 121.89932236 -61.21248153 119.77615486 -60.921875 117.6484375 C-60.73258986 116.32097446 -60.54278922 114.99358485 -60.35253906 113.66625977 C-60.25493286 112.96671173 -60.15732666 112.2671637 -60.0567627 111.54641724 C-55.21029629 77.24074434 -45.68628441 24.6538695 -17.12890625 1.69140625 C-11.55790634 -1.32013303 -6.13914178 -1.08533634 0 0 Z M-4 43 C-10.49588851 57.76320775 -16.0820968 72.34894592 -20 88 C-20.22526367 88.8677002 -20.45052734 89.73540039 -20.68261719 90.62939453 C-26.96835966 115.01466794 -28.5682759 139.45352746 -28.4375 164.5625 C-28.43412628 165.82626465 -28.43075256 167.0900293 -28.42727661 168.39208984 C-28.29392865 202.9698439 -25.79209593 237.55775955 -10 269 C-9.45730469 270.12148438 -8.91460937 271.24296875 -8.35546875 272.3984375 C1.32777925 291.49280476 16.80527458 307.8134495 35 319 C36.05058594 319.67289062 37.10117188 320.34578125 38.18359375 321.0390625 C77.68068068 345.13740294 130.26232931 348.62421065 174.5 338.3125 C197.6212334 332.6037474 220.72542181 323.68611102 239 308 C239.5249707 307.55043945 240.04994141 307.10087891 240.59082031 306.63769531 C260.6854839 289.2505728 274.49920101 267.56021399 282 242 C282.35964844 240.78054687 282.71929687 239.56109375 283.08984375 238.3046875 C288.42365304 218.7004224 290.09168269 197.94010503 290.23828125 177.68359375 C290.2480751 176.55644958 290.25786896 175.42930542 290.26795959 174.26800537 C290.6121243 140.42708422 290.6121243 140.42708422 286 107 C285.78037598 105.91170898 285.56075195 104.82341797 285.33447266 103.70214844 C281.11715816 82.93493382 274.93997527 63.21143621 266 44 C261.74642936 44.80890553 259.8516514 46.75228591 257 50 C257 50.66 257 51.32 257 52 C256.34 52 255.68 52 255 52 C253.49726114 53.44683052 253.49726114 53.44683052 251.9375 55.375 C249.22076214 58.57546345 246.45664781 61.71306063 243.625 64.8125 C238.114673 70.9215722 232.8781053 77.25213761 227.8671875 83.77734375 C219.91489762 94.07298902 219.91489762 94.07298902 214.00390625 95.47265625 C207.23747104 96.10023456 201.84185999 93.48863063 195.796875 90.85131836 C159.26473554 75.0352845 111.44461709 73.86018582 74 87 C70.25199101 88.51885942 66.62780009 90.21674016 63 92 C57.54282458 94.51792469 52.04107653 96.31824179 46 95 C41.28727722 92.36162728 37.98704356 89.02793301 34.625 84.875 C34.14732178 84.29878906 33.66964355 83.72257812 33.17749023 83.12890625 C30.42179262 79.79191783 27.7352697 76.40373594 25.0625 73 C20.92101125 67.76774878 16.39210844 62.93057056 11.83984375 58.05859375 C9.5086702 55.56096285 7.23670524 53.0205338 5 50.4375 C1.65879225 46.56609282 1.65879225 46.56609282 -2 43 C-2.66 43 -3.32 43 -4 43 Z M324 187 C324 190.63 324 194.26 324 198 C326.26609984 193.46780033 325.92735976 191.82227075 325 187 C324.67 187 324.34 187 324 187 Z " fill="#152026" transform="translate(78,0)"/>
<path d="M0 0 C7.09746597 5.19267596 12.47256633 11.97144338 14.28515625 20.671875 C15.56317113 32.01425704 14.75966708 42.2267368 7.53515625 51.484375 C1.23197603 58.21623498 -6.38786983 61.60665711 -15.58984375 62.046875 C-23.84660217 61.83420092 -29.98805646 58.12931813 -35.92578125 52.59375 C-43.15491138 44.82795955 -45.21976614 36.49452519 -45.02734375 26.01953125 C-44.24307274 17.61802805 -40.81368008 9.58981364 -34.71484375 3.671875 C-24.27227114 -3.89568553 -11.78171148 -6.81998258 0 0 Z " fill="#121E24" transform="translate(148.71484375,162.328125)"/>
<path d="M0 0 C6.44619274 3.95561828 11.16402755 11.58634663 13.52734375 18.71875 C15.46289183 28.06056883 14.32159032 37.50743779 10 46 C4.78874034 53.42271759 -0.84698622 58.15409587 -9.5 60.75 C-19.53421352 61.75342135 -27.25883426 60.08581171 -35.21484375 53.6640625 C-41.18380608 48.09999696 -44.86656344 40.8748034 -45.50390625 32.703125 C-45.83847937 21.67079071 -44.49579971 13.12303772 -36.84375 4.59765625 C-26.10041686 -5.57539722 -13.05202217 -7.04122249 0 0 Z " fill="#131F25" transform="translate(300,163)"/>
<path d="M0 0 C0.66 0 1.32 0 2 0 C3.26439145 2.52878289 3.29047383 4.62012127 3.5 7.4375 C3.73306642 10.56308718 4.00474943 13.01424829 5 16 C5.23607178 18.75786521 5.41967106 21.49469605 5.5546875 24.2578125 C5.59673309 25.0937796 5.63877869 25.9297467 5.68209839 26.79104614 C6.11247995 36.17401226 6.15082793 45.55404997 6.13037109 54.9453125 C6.12496649 57.89328051 6.13038009 60.84109879 6.13671875 63.7890625 C6.14884435 91.31936319 6.14884435 91.31936319 2 101 C1.62033354 102.65672637 1.26239024 104.32070245 1 106 C0.01 105.67 -0.98 105.34 -2 105 C-1.835 103.989375 -1.67 102.97875 -1.5 101.9375 C-0.58167838 94.61716476 -0.01916862 86.38952317 -1.6328125 79.16796875 C-1.75398438 78.45253906 -1.87515625 77.73710937 -2 77 C-1.01 76.01 -1.01 76.01 0 75 C-0.19946287 73.4337709 -0.41502166 71.86872641 -0.6869812 70.31344604 C-1.38833579 65.12990431 -1.24558948 59.85165905 -1.31640625 54.62890625 C-1.33718735 53.35144028 -1.35796844 52.0739743 -1.37937927 50.75779724 C-1.43349454 47.38281381 -1.48380121 44.00781821 -1.53222656 40.63275146 C-1.58271279 37.18024692 -1.6382564 33.72782402 -1.69335938 30.27539062 C-1.80020814 23.51699237 -1.90203222 16.75853251 -2 10 C-1.67 10 -1.34 10 -1 10 C-1 8.33320313 -1.0277826 6.66643527 -1.0625 5 C-1 2 -1 2 0 0 Z " fill="#F6F6F7" transform="translate(403,119)"/>
<path d="M0 0 C3.05370544 3.05370544 2.50970348 6.70378399 2.6875 10.8125 C2.73455078 11.62009766 2.78160156 12.42769531 2.83007812 13.25976562 C3.13560844 19.37538058 3.13560844 19.37538058 2.50375366 22.28573608 C1.9759372 25.12965226 1.8798288 27.72552611 1.88647461 30.61645508 C1.88655014 31.71721878 1.88662567 32.81798248 1.88670349 33.95210266 C1.89186478 35.1293541 1.89702606 36.30660553 1.90234375 37.51953125 C1.9037587 38.73323898 1.90517365 39.94694672 1.90663147 41.19743347 C1.91222335 45.06914752 1.92477442 48.94080347 1.9375 52.8125 C1.94251605 55.43945229 1.94707877 58.06640549 1.95117188 60.69335938 C1.96219013 67.12892603 1.97892024 73.56445886 2 80 C1.01 79.67 0.02 79.34 -1 79 C-2.24911667 71.34916042 -2.09053426 63.72559014 -2 56 C-1.67 56 -1.34 56 -1 56 C-0.67 50.72 -0.34 45.44 0 40 C-0.66 40 -1.32 40 -2 40 C-2.33 40.99 -2.66 41.98 -3 43 C-3 41.02 -3 39.04 -3 37 C-2.01 36.505 -2.01 36.505 -1 36 C-1 31.71 -1 27.42 -1 23 C-1.66 23.66 -2.32 24.32 -3 25 C-2.85975781 22.52039864 -2.7130815 20.04147598 -2.5625 17.5625 C-2.52318359 16.85544922 -2.48386719 16.14839844 -2.44335938 15.41992188 C-2.11328125 10.11328125 -2.11328125 10.11328125 -1 9 C-1 7.865625 -1 6.73125 -1 5.5625 C-1 2 -1 2 0 0 Z " fill="#D0D0D0" transform="translate(15,124)"/>
<path d="M0 0 C0.13148437 0.63292969 0.26296875 1.26585938 0.3984375 1.91796875 C0.81564421 4.10750564 0.81564421 4.10750564 2.625 5.3125 C4 7 4 7 3.75 10.375 C3.5025 11.57125 3.255 12.7675 3 14 C2.814375 14.969375 2.62875 15.93875 2.4375 16.9375 C2.2209375 17.9584375 2.2209375 17.9584375 2 19 C2.66 19.33 3.32 19.66 4 20 C3.01 20.66 2.02 21.32 1 22 C1 21.01 1 20.02 1 19 C0.566875 19.495 0.13375 19.99 -0.3125 20.5 C-2 22 -2 22 -5 22 C-4.938125 23.423125 -4.938125 23.423125 -4.875 24.875 C-5 28 -5 28 -7 30 C-6.43240789 22.99490754 -4.95346459 16.6589411 -2.9375 9.9375 C-2.65583984 8.97650391 -2.37417969 8.01550781 -2.08398438 7.02539062 C-1.39598716 4.68153571 -0.7012399 2.33992007 0 0 Z " fill="#383F43" transform="translate(28,66)"/>
<path d="M0 0 C1.32 0.33 2.64 0.66 4 1 C-4.28425047 6.12834553 -12.74919766 10.83994631 -22 14 C-22.66 13.67 -23.32 13.34 -24 13 C-23.67 12.01 -23.34 11.02 -23 10 C-22.34 10 -21.68 10 -21 10 C-21 9.34 -21 8.68 -21 8 C-21.66 7.67 -22.32 7.34 -23 7 C-22.34 6.34 -21.68 5.68 -21 5 C-19.8553125 5.2475 -19.8553125 5.2475 -18.6875 5.5 C-15.45658945 6.10109964 -13.90792074 5.41241865 -11 4 C-10.67 4.33 -10.34 4.66 -10 5 C-8.33382885 5.04063832 -6.66611905 5.042721 -5 5 C-4.67 3.68 -4.34 2.36 -4 1 C-2.68 1.33 -1.36 1.66 0 2 C0 1.34 0 0.68 0 0 Z " fill="#2D3639" transform="translate(314,348)"/>
<path d="M0 0 C0.66 1.32 1.32 2.64 2 4 C2.66 3.67 3.32 3.34 4 3 C4.33 3.99 4.66 4.98 5 6 C4.01 6.495 4.01 6.495 3 7 C2.01 6.67 1.02 6.34 0 6 C-0.33 5.34 -0.66 4.68 -1 4 C-2.56272189 8.39253773 -2.56272189 8.39253773 -3 13 C-4.65 13.33 -6.3 13.66 -8 14 C-8.33 13.01 -8.66 12.02 -9 11 C-8.67 10.34 -8.34 9.68 -8 9 C-11.3 8.67 -14.6 8.34 -18 8 C-18 7.01 -18 6.02 -18 5 C-16.783125 5.350625 -15.56625 5.70125 -14.3125 6.0625 C-10.83524627 6.9012038 -8.38653843 7.46444905 -5 6 C-3.10514628 4.11038068 -1.60773988 2.15896498 0 0 Z M-18 9 C-16.02 9 -14.04 9 -12 9 C-12 9.33 -12 9.66 -12 10 C-13.98 10 -15.96 10 -18 10 C-18 9.67 -18 9.34 -18 9 Z " fill="#1D292B" transform="translate(290,49)"/>
<path d="M0 0 C2.14798187 3.2219728 2.59623282 5.25074149 3.2890625 9.0234375 C3.61777344 10.80234375 3.61777344 10.80234375 3.953125 12.6171875 C4.17484375 13.85726562 4.3965625 15.09734375 4.625 16.375 C4.85445313 17.60734375 5.08390625 18.8396875 5.3203125 20.109375 C7.38818762 31.45807061 7.38818762 31.45807061 7 35 C6.01 35.99 5.02 36.98 4 38 C3.34 35.03 2.68 32.06 2 29 C2.66 29 3.32 29 4 29 C3.67 28.01 3.34 27.02 3 26 C2.77202438 23.26710707 2.58331813 20.54957796 2.4375 17.8125 C2.39431641 17.06291016 2.35113281 16.31332031 2.30664062 15.54101562 C2.20077315 13.69421625 2.0999024 11.84713166 2 10 C1.01 10 0.02 10 -1 10 C-0.67 6.7 -0.34 3.4 0 0 Z " fill="#495053" transform="translate(393,82)"/>
<path d="M0 0 C0.33 0 0.66 0 1 0 C3.39300292 16.15276968 3.39300292 16.15276968 0 22 C0 21.34 0 20.68 0 20 C-0.66 20 -1.32 20 -2 20 C-2 19.34 -2 18.68 -2 18 C-2.66 17.67 -3.32 17.34 -4 17 C-3.690625 15.948125 -3.38125 14.89625 -3.0625 13.8125 C-2.24112897 10.86522747 -1.55312554 8.00268148 -1 5 C-0.66666667 3.33333333 -0.33333333 1.66666667 0 0 Z " fill="#22292A" transform="translate(52,210)"/>
<path d="M0 0 C0.75475351 8.35619957 1.13605482 16.60995285 1 25 C0.01 24.67 -0.98 24.34 -2 24 C-3.24911667 16.34916042 -3.09053426 8.72559014 -3 1 C-1 0 -1 0 0 0 Z " fill="#F3F5F4" transform="translate(16,179)"/>
<path d="M0 0 C0.99 0 1.98 0 3 0 C3 0.99 3 1.98 3 3 C4.98 3 6.96 3 9 3 C9 3.33 9 3.66 9 4 C5.45995797 4.6754914 1.91773831 5.33880798 -1.625 6 C-2.62402344 6.19078125 -3.62304688 6.3815625 -4.65234375 6.578125 C-9.49052593 7.47527136 -14.05392418 8.27009288 -19 8 C-19 7.67 -19 7.34 -19 7 C-15.7 6.67 -12.4 6.34 -9 6 C-9 5.34 -9 4.68 -9 4 C-9.66 3.67 -10.32 3.34 -11 3 C-7.37 3 -3.74 3 0 3 C0 2.01 0 1.02 0 0 Z " fill="#676F71" transform="translate(252,368)"/>
<path d="M0 0 C0.556875 0.268125 1.11375 0.53625 1.6875 0.8125 C1.6875 1.4725 1.6875 2.1325 1.6875 2.8125 C2.3475 2.8125 3.0075 2.8125 3.6875 2.8125 C2.6875 4.8125 2.6875 4.8125 -0.1875 5.9375 C-3.3125 6.8125 -3.3125 6.8125 -6.3125 6.8125 C-5.9825 7.8025 -5.6525 8.7925 -5.3125 9.8125 C-5.6425 10.4725 -5.9725 11.1325 -6.3125 11.8125 C-6.9725 11.4825 -7.6325 11.1525 -8.3125 10.8125 C-7.9825 10.1525 -7.6525 9.4925 -7.3125 8.8125 C-7.9725 8.8125 -8.6325 8.8125 -9.3125 8.8125 C-7.66495848 4.76853446 -4.80734346 -0.3897846 0 0 Z " fill="#0E171B" transform="translate(323.3125,17.1875)"/>
<path d="M0 0 C1.28423981 4.65536931 1 9.18875045 1 14 C0.01 14.495 0.01 14.495 -1 15 C-1.33 14.34 -1.66 13.68 -2 13 C-3.32 16.3 -4.64 19.6 -6 23 C-7.03292721 18.86829116 -6.999978 18.17538148 -5.56640625 14.453125 C-5.24736328 13.60878906 -4.92832031 12.76445313 -4.59960938 11.89453125 C-4.08624023 10.58548828 -4.08624023 10.58548828 -3.5625 9.25 C-3.22412109 8.36183594 -2.88574219 7.47367188 -2.53710938 6.55859375 C-1.70109106 4.36846127 -0.85514209 2.18272086 0 0 Z " fill="#6D7273" transform="translate(36,43)"/>
<path d="M0 0 C5.31901517 -0.50657287 7.86484812 0.67389957 12 4 C14.375 6.75 14.375 6.75 16 9 C15.67 9.66 15.34 10.32 15 11 C7.4726477 6.88621444 7.4726477 6.88621444 5.5 3.1875 C5.335 2.465625 5.17 1.74375 5 1 C3.68 1 2.36 1 1 1 C0.67 1.66 0.34 2.32 0 3 C0 2.01 0 1.02 0 0 Z " fill="#4F5759" transform="translate(348,0)"/>
<path d="M0 0 C0.66 0.33 1.32 0.66 2 1 C0.02 3.31 -1.96 5.62 -4 8 C-3.34 8 -2.68 8 -2 8 C-2.33 9.65 -2.66 11.3 -3 13 C-3.99 13 -4.98 13 -6 13 C-6.66 12.34 -7.32 11.68 -8 11 C-8.99 11.66 -9.98 12.32 -11 13 C-9.46356148 9.31930113 -7.21849055 7.01224796 -4.375 4.25 C-3.55773437 3.45078125 -2.74046875 2.6515625 -1.8984375 1.828125 C-0.95871094 0.92320313 -0.95871094 0.92320313 0 0 Z " fill="#707778" transform="translate(318,18)"/>
<path d="M0 0 C0.33 1.32 0.66 2.64 1 4 C2.32 4 3.64 4 5 4 C5.49230769 11.38461538 5.49230769 11.38461538 3 14.5 C2.34 14.995 1.68 15.49 1 16 C0.08342019 10.61509359 -0.11138159 5.45769811 0 0 Z " fill="#0E181A" transform="translate(17,188)"/>
<path d="M0 0 C0.12375 0.639375 0.2475 1.27875 0.375 1.9375 C0.684375 2.9584375 0.684375 2.9584375 1 4 C1.66 4.33 2.32 4.66 3 5 C2.625 7.4375 2.625 7.4375 2 10 C1.01 10.495 1.01 10.495 0 11 C-0.33 11.66 -0.66 12.32 -1 13 C-3.0625 13.625 -3.0625 13.625 -5 14 C-3.46527032 9.27775484 -1.76054874 4.64144669 0 0 Z " fill="#2C3037" transform="translate(356,251)"/>
<path d="M0 0 C6.625 -0.25 6.625 -0.25 10 2 C10 2.33 10 2.66 10 3 C10.66 3 11.32 3 12 3 C12 3.99 12 4.98 12 6 C13.32 6.33 14.64 6.66 16 7 C15.01 7.495 15.01 7.495 14 8 C11.55667274 6.92481882 9.23245477 5.80191434 6.875 4.5625 C6.21628906 4.22412109 5.55757813 3.88574219 4.87890625 3.53710938 C3.24893453 2.69850074 1.62398091 1.85015189 0 1 C0 0.67 0 0.34 0 0 Z " fill="#697273" transform="translate(103,352)"/>
<path d="M0 0 C3.10424729 1.0704301 3.93413092 1.88143566 5.5625 4.8125 C6.036875 5.864375 6.51125 6.91625 7 8 C7.98387706 9.67623498 8.97862543 11.34634594 10 13 C6.89557969 11.6095501 4.6343557 9.98428402 2.1875 7.625 C1.56230469 7.03976562 0.93710938 6.45453125 0.29296875 5.8515625 C-1 4 -1 4 -0.69921875 1.7734375 C-0.35310547 0.89558594 -0.35310547 0.89558594 0 0 Z " fill="#465052" transform="translate(64,319)"/>
<path d="M0 0 C1.72357119 2.58535679 2.44735018 4.03811614 3.1875 6.9375 C3.36667969 7.60652344 3.54585938 8.27554688 3.73046875 8.96484375 C4.03268678 11.24680888 3.68756692 12.82026659 3 15 C2.34 14.34 1.68 13.68 1 13 C0.34 13 -0.32 13 -1 13 C-1 12.34 -1 11.68 -1 11 C-0.01 11 0.98 11 2 11 C2 10.34 2 9.68 2 9 C0.35 9 -1.3 9 -3 9 C-2.67 7.35 -2.34 5.7 -2 4 C-1.34 4 -0.68 4 0 4 C0 2.68 0 1.36 0 0 Z " fill="#545A5F" transform="translate(389,67)"/>
<path d="M0 0 C0 0.33 0 0.66 0 1 C-3.63 1.33 -7.26 1.66 -11 2 C-11 2.66 -11 3.32 -11 4 C-15.95 4 -20.9 4 -26 4 C-26 3.67 -26 3.34 -26 3 C-23.16793882 2.49168133 -20.33470266 1.99318495 -17.5 1.5 C-16.31277344 1.28537109 -16.31277344 1.28537109 -15.1015625 1.06640625 C-9.9876082 0.18613543 -5.18887598 -0.1428131 0 0 Z " fill="#818889" transform="translate(187,46)"/>
<path d="M0 0 C0.33 0.66 0.66 1.32 1 2 C2.97888961 2.72693904 4.97954558 3.39816251 7 4 C6.125 8.75 6.125 8.75 5 11 C5.66 11.33 6.32 11.66 7 12 C6.34 12.66 5.68 13.32 5 14 C4.15973604 12.23244474 3.32801278 10.46082737 2.5 8.6875 C2.0359375 7.70136719 1.571875 6.71523438 1.09375 5.69921875 C0 3 0 3 0 0 Z " fill="#545D5C" transform="translate(31,269)"/>
<path d="M0 0 C0.33 0 0.66 0 1 0 C1.12117188 0.85464844 1.24234375 1.70929688 1.3671875 2.58984375 C1.53476562 3.69457031 1.70234375 4.79929688 1.875 5.9375 C2.03742187 7.03964844 2.19984375 8.14179688 2.3671875 9.27734375 C2.68042969 10.62505859 2.68042969 10.62505859 3 12 C3.66 12.33 4.32 12.66 5 13 C4.67 16.3 4.34 19.6 4 23 C3.67 23 3.34 23 3 23 C1.80911014 17.61972975 0.7080481 12.54708616 1 7 C0.01 7.33 -0.98 7.66 -2 8 C-1.67 7.01 -1.34 6.02 -1 5 C-0.65179959 3.33637583 -0.31595508 1.67004829 0 0 Z " fill="#9DA3A3" transform="translate(19,220)"/>
<path d="M0 0 C3.05370544 3.05370544 2.50970348 6.70378399 2.6875 10.8125 C2.73455078 11.62009766 2.78160156 12.42769531 2.83007812 13.25976562 C3.03427428 17.34703613 3.07721915 21.00699971 2 25 C1.67 25 1.34 25 1 25 C0.67 19.72 0.34 14.44 0 9 C-0.33 9 -0.66 9 -1 9 C-1.125 2.25 -1.125 2.25 0 0 Z " fill="#2C3435" transform="translate(15,124)"/>
<path d="M0 0 C4.75 0.75 4.75 0.75 7 3 C6.9765625 5.1640625 6.9765625 5.1640625 6.625 7.625 C6.51414062 8.44226563 6.40328125 9.25953125 6.2890625 10.1015625 C6.19367187 10.72804688 6.09828125 11.35453125 6 12 C5.67 11.01 5.34 10.02 5 9 C4.34 9 3.68 9 3 9 C2.67 9.99 2.34 10.98 2 12 C0.9673198 9.21176345 0.95490707 8.1322726 1.9375 5.25 C2.288125 4.5075 2.63875 3.765 3 3 C2.01 2.67 1.02 2.34 0 2 C0 1.34 0 0.68 0 0 Z " fill="#121B1D" transform="translate(48,96)"/>
<path d="M0 0 C2.26739166 3.4010875 2.92237748 6.50635326 3.6875 10.4375 C3.82994141 11.10587891 3.97238281 11.77425781 4.11914062 12.46289062 C4.80654585 15.91359643 5.272827 18.65989694 4 22 C2.40861915 17.82262526 1.78721942 14.46839215 2 10 C1.01 10 0.02 10 -1 10 C-0.67 6.7 -0.34 3.4 0 0 Z " fill="#7E8284" transform="translate(393,82)"/>
<path d="M0 0 C0.33 -0.66 0.66 -1.32 1 -2 C0.125 2.75 0.125 2.75 -1 5 C-5.75 4.25 -5.75 4.25 -8 2 C-8 1.01 -8 0.02 -8 -1 C-4.59745511 -2.2151946 -3.06748874 -1.86240388 0 0 Z " fill="#1E262A" transform="translate(279,218)"/>
<path d="M0 0 C1.32 0.33 2.64 0.66 4 1 C2.08702939 2.15199331 0.16947471 3.29637688 -1.75 4.4375 C-2.81734375 5.07558594 -3.8846875 5.71367187 -4.984375 6.37109375 C-7.43484971 7.69473099 -9.28991337 8.53297051 -12 9 C-11 6 -11 6 -10 5 C-8.33382885 4.95936168 -6.66611905 4.957279 -5 5 C-4.67 3.68 -4.34 2.36 -4 1 C-2.68 1.33 -1.36 1.66 0 2 C0 1.34 0 0.68 0 0 Z " fill="#6A7274" transform="translate(314,348)"/>
<path d="M0 0 C2.31 1.98 4.62 3.96 7 6 C6.67 6.66 6.34 7.32 6 8 C5.34 7.67 4.68 7.34 4 7 C1.93330603 7.90833725 1.93330603 7.90833725 0 9 C-0.33 9 -0.66 9 -1 9 C-0.67 6.03 -0.34 3.06 0 0 Z " fill="#465052" transform="translate(113,33)"/>
<path d="M0 0 C4.50343911 0.5112012 6.87525426 2.17521358 10.3125 5.0625 C11.19550781 5.79597656 12.07851562 6.52945312 12.98828125 7.28515625 C13.65214844 7.85105469 14.31601563 8.41695312 15 9 C12.33333333 9 9.66666667 9 7 9 C6.7525 8.195625 6.505 7.39125 6.25 6.5625 C5.8375 5.716875 5.425 4.87125 5 4 C2.97536745 3.34786708 2.97536745 3.34786708 1 3 C0.67 2.01 0.34 1.02 0 0 Z " fill="#666C6F" transform="translate(75,0)"/>
<path d="M0 0 C0.33 2.31 0.66 4.62 1 7 C-0.65 7 -2.3 7 -4 7 C-4.66 5.68 -5.32 4.36 -6 3 C-5.34 3 -4.68 3 -4 3 C-4 2.34 -4 1.68 -4 1 C-2 0 -2 0 0 0 Z " fill="#0D1A1B" transform="translate(54,298)"/>
<path d="M0 0 C1.72945653 0.14235457 3.45855654 0.28904382 5.1875 0.4375 C6.63189453 0.55931641 6.63189453 0.55931641 8.10546875 0.68359375 C10.78649602 0.97666151 13.3662986 1.42703754 16 2 C16 2.33 16 2.66 16 3 C13.36 3.33 10.72 3.66 8 4 C8 3.34 8 2.68 8 2 C7.071875 2.309375 6.14375 2.61875 5.1875 2.9375 C3.125 3.625 1.0625 4.3125 -1 5 C-1.33 5.66 -1.66 6.32 -2 7 C-2 6.01 -2 5.02 -2 4 C-1.34 4 -0.68 4 0 4 C0 2.68 0 1.36 0 0 Z " fill="#666E71" transform="translate(242,48)"/>
<path d="M0 0 C1.50390625 1.33984375 1.50390625 1.33984375 3 3 C2.9375 5.5625 2.9375 5.5625 2 8 C-0.0625 9.3125 -0.0625 9.3125 -2 10 C-3 8 -3 8 -2.44140625 6.0546875 C-2.15136719 5.33539063 -1.86132812 4.61609375 -1.5625 3.875 C-1.27503906 3.15054688 -0.98757812 2.42609375 -0.69140625 1.6796875 C-0.46324219 1.12539063 -0.23507813 0.57109375 0 0 Z " fill="#0E161A" transform="translate(33,55)"/>
<path d="M0 0 C2.61500768 2.36595933 4.38999603 4.86049226 6 8 C5.67 8.66 5.34 9.32 5 10 C2 9 2 9 1 8 C0.67 8.66 0.34 9.32 0 10 C-0.66 8.02 -1.32 6.04 -2 4 C-1.34 3.67 -0.68 3.34 0 3 C0 2.01 0 1.02 0 0 Z " fill="#515A5F" transform="translate(364,11)"/>
<path d="M0 0 C1.14926266 0.95421808 2.29430541 1.91352045 3.4375 2.875 C4.07558594 3.40867187 4.71367188 3.94234375 5.37109375 4.4921875 C7 6 7 6 8 8 C7.34 8.66 6.68 9.32 6 10 C6 9.34 6 8.68 6 8 C5.34 8 4.68 8 4 8 C3.67 8.99 3.34 9.98 3 11 C3 10.34 3 9.68 3 9 C2.34 8.67 1.68 8.34 1 8 C1.33 7.01 1.66 6.02 2 5 C1.34 4.34 0.68 3.68 0 3 C0 2.01 0 1.02 0 0 Z " fill="#2A3435" transform="translate(87,297)"/>
<path d="M0 0 C0 0.66 0 1.32 0 2 C-1.32 2 -2.64 2 -4 2 C-3.67 2.66 -3.34 3.32 -3 4 C-5.475 5.485 -5.475 5.485 -8 7 C-8.66 5.68 -9.32 4.36 -10 3 C-8 0 -8 0 -5.5625 -0.75 C-3 -1 -3 -1 0 0 Z " fill="#50585B" transform="translate(142,56)"/>
<path d="M0 0 C0.66 0 1.32 0 2 0 C2.103125 0.5775 2.20625 1.155 2.3125 1.75 C2.87824003 4.10641749 2.87824003 4.10641749 4.625 6 C6 8 6 8 5.6875 10.25 C5.460625 10.8275 5.23375 11.405 5 12 C4.34 11.34 3.68 10.68 3 10 C2.01 10.495 2.01 10.495 1 11 C1.0928125 9.576875 1.0928125 9.576875 1.1875 8.125 C1.125625 7.09375 1.06375 6.0625 1 5 C0.01 4.34 -0.98 3.68 -2 3 C-1.34 2.01 -0.68 1.02 0 0 Z " fill="#0F181D" transform="translate(120,43)"/>
<path d="M0 0 C3.3 0.99 6.6 1.98 10 3 C6.00889681 4.9955516 4.30013434 5.19546065 0 5 C0 3.35 0 1.7 0 0 Z " fill="#131C1C" transform="translate(137,331)"/>
<path d="M0 0 C3.24299151 2.38957269 5.50902342 4.2047869 7 8 C5.02 8.99 5.02 8.99 3 10 C2.30289269 8.71349294 1.61757124 7.42059335 0.9375 6.125 C0.36322266 5.04605469 0.36322266 5.04605469 -0.22265625 3.9453125 C-0.47917969 3.30335937 -0.73570313 2.66140625 -1 2 C-0.67 1.34 -0.34 0.68 0 0 Z " fill="#50575C" transform="translate(122,43)"/>
<path d="M0 0 C4.41309542 3.15221101 7.00793014 6.55463907 10 11 C9.34 11.66 8.68 12.32 8 13 C8 12.34 8 11.68 8 11 C7.38125 10.773125 6.7625 10.54625 6.125 10.3125 C3.34025563 8.59251083 3.01961657 7.05884971 2 4 C1.34786461 2.65949948 0.68620031 1.32338632 0 0 Z " fill="#63696B" transform="translate(99,18)"/>
<path d="M0 0 C2.97 0.495 2.97 0.495 6 1 C6 5 6 5 4.5 6.75 C4.005 7.1625 3.51 7.575 3 8 C3 7.01 3 6.02 3 5 C2.34 4.67 1.68 4.34 1 4 C0.375 1.9375 0.375 1.9375 0 0 Z " fill="#414A50" transform="translate(364,296)"/>
<path d="M0 0 C0.66 0.99 1.32 1.98 2 3 C0.92456217 3.98783194 -0.16073217 4.96493943 -1.25 5.9375 C-2.15492188 6.75541016 -2.15492188 6.75541016 -3.078125 7.58984375 C-5.08467305 9.06212799 -6.57002449 9.57529189 -9 10 C-9 8 -9 8 -7 6 C-6.01 6 -5.02 6 -4 6 C-4 5.34 -4 4.68 -4 4 C-2.70766393 2.62689293 -1.37562854 1.28965176 0 0 Z " fill="#1C2529" transform="translate(303,212)"/>
<path d="M0 0 C1.216875 0.33 2.43375 0.66 3.6875 1 C6.87210604 1.80322213 9.6972843 2.20641973 13 2 C13 2.66 13 3.32 13 4 C8.71 3.67 4.42 3.34 0 3 C0 2.01 0 1.02 0 0 Z M0 4 C1.98 4 3.96 4 6 4 C6 4.33 6 4.66 6 5 C4.02 5 2.04 5 0 5 C0 4.67 0 4.34 0 4 Z " fill="#687173" transform="translate(272,54)"/>
<path d="M0 0 C0.66 0.66 1.32 1.32 2 2 C-1 4 -1 4 -3.48046875 3.7578125 C-4.37378906 3.54898438 -5.26710937 3.34015625 -6.1875 3.125 C-7.08855469 2.92132813 -7.98960937 2.71765625 -8.91796875 2.5078125 C-9.60503906 2.34023438 -10.29210937 2.17265625 -11 2 C-11 1.67 -11 1.34 -11 1 C-7.26779887 0.12183503 -3.83453269 -0.25563551 0 0 Z " fill="#464E50" transform="translate(163,50)"/>
<path d="M0 0 C6.75 -0.125 6.75 -0.125 9 1 C9 1.66 9 2.32 9 3 C4.03926578 4.32286246 -0.91111512 4.08893197 -6 4 C-6 3.67 -6 3.34 -6 3 C-3.36 3 -0.72 3 2 3 C2 2.34 2 1.68 2 1 C1.34 0.67 0.68 0.34 0 0 Z " fill="#0D161B" transform="translate(234,371)"/>
<path d="M0 0 C0.66 1.65 1.32 3.3 2 5 C-0.8125 5.625 -0.8125 5.625 -4 6 C-4.99 5.34 -5.98 4.68 -7 4 C-7 3.01 -7 2.02 -7 1 C-4 0 -4 0 0 0 Z " fill="#0F1C1D" transform="translate(95,305)"/>
<path d="M0 0 C0.928125 0.20625 1.85625 0.4125 2.8125 0.625 C2.8125 1.615 2.8125 2.605 2.8125 3.625 C3.8025 3.955 4.7925 4.285 5.8125 4.625 C1.4947542 4.11702991 -2.22052114 3.42817221 -6.1875 1.625 C-3.1875 -0.375 -3.1875 -0.375 0 0 Z " fill="#283234" transform="translate(126.1875,219.375)"/>
<path d="M0 0 C0.99 0.66 1.98 1.32 3 2 C2.34 3.32 1.68 4.64 1 6 C-0.65 5.01 -2.3 4.02 -4 3 C-4 3.66 -4 4.32 -4 5 C-4.66 5 -5.32 5 -6 5 C-6.33 3.68 -6.66 2.36 -7 1 C-4.47454232 -0.26272884 -2.80127043 -0.20497101 0 0 Z " fill="#1D272A" transform="translate(125,162)"/>
<path d="M0 0 C3 1 3 1 4 3 C0.5980513 5.09350689 -2.05272412 5.17942163 -6 5 C-6 4.01 -6 3.02 -6 2 C-4.02 2 -2.04 2 0 2 C0 1.34 0 0.68 0 0 Z " fill="#252D30" transform="translate(294,91)"/>
<path d="M0 0 C-0.33 0.99 -0.66 1.98 -1 3 C-4.63 2.34 -8.26 1.68 -12 1 C-12 0.67 -12 0.34 -12 0 C-7.224647 -1.68541871 -4.55270882 -2.48329572 0 0 Z " fill="#2B3436" transform="translate(264,84)"/>
<path d="M0 0 C0.99 0.33 1.98 0.66 3 1 C3 2.32 3 3.64 3 5 C-2.75 6.125 -2.75 6.125 -5 5 C-5 4.01 -5 3.02 -5 2 C-3.35 1.67 -1.7 1.34 0 1 C0 0.67 0 0.34 0 0 Z " fill="#11191C" transform="translate(141,56)"/>
<path d="M0 0 C2 1 2 1 2.8515625 3.06640625 C3.10679687 3.89011719 3.36203125 4.71382812 3.625 5.5625 C3.88539063 6.38878906 4.14578125 7.21507812 4.4140625 8.06640625 C4.60742188 8.70449219 4.80078125 9.34257813 5 10 C3.125 9.6875 3.125 9.6875 1 9 C-1 6 -1 6 -2 3 C-1.34 2.67 -0.68 2.34 0 2 C0 1.34 0 0.68 0 0 Z " fill="#515659" transform="translate(372,25)"/>
<path d="M0 0 C0.33 0.66 0.66 1.32 1 2 C0.00390625 3.9453125 0.00390625 3.9453125 -1.4375 6.125 C-1.91058594 6.84945313 -2.38367188 7.57390625 -2.87109375 8.3203125 C-3.24363281 8.87460937 -3.61617188 9.42890625 -4 10 C-4.66 8.68 -5.32 7.36 -6 6 C-5.34 5.01 -4.68 4.02 -4 3 C-3.67 2.34 -3.34 1.68 -3 1 C-2.01 0.67 -1.02 0.34 0 0 Z " fill="#5D6666" transform="translate(376,288)"/>
<path d="M0 0 C0.103125 0.61875 0.20625 1.2375 0.3125 1.875 C0.87525373 4.36526484 0.87525373 4.36526484 4 6 C3.67 6.99 3.34 7.98 3 9 C0.69 7.02 -1.62 5.04 -4 3 C-3 1 -3 1 0 0 Z " fill="#515A5B" transform="translate(79,331)"/>
<path d="M0 0 C0.33 0.66 0.66 1.32 1 2 C1.66 2 2.32 2 3 2 C3 1.34 3 0.68 3 0 C3.66 0 4.32 0 5 0 C4.01 2.97 3.02 5.94 2 9 C0 7 0 7 -0.125 3.375 C-0.08375 2.26125 -0.0425 1.1475 0 0 Z " fill="#525A5E" transform="translate(380,272)"/>
<path d="M0 0 C0.33 0 0.66 0 1 0 C1.08119503 2.24940295 1.13927819 4.49964871 1.1875 6.75 C1.22230469 8.00296875 1.25710937 9.2559375 1.29296875 10.546875 C0.98802939 14.14109357 0.45605371 15.44725126 -2 18 C-1.85805236 15.93722893 -1.71127784 13.87478969 -1.5625 11.8125 C-1.48128906 10.66394531 -1.40007813 9.51539062 -1.31640625 8.33203125 C-1.04596188 5.48401829 -0.62478253 2.78789518 0 0 Z " fill="#0E1517" transform="translate(21,100)"/>
<path d="M0 0 C0.103125 0.598125 0.20625 1.19625 0.3125 1.8125 C1.08876455 4.28243264 2.07088921 5.32251235 4 7 C3.21625 7.45375 2.4325 7.9075 1.625 8.375 C-1.03698031 9.88428742 -1.03698031 9.88428742 -3 12 C-2.69106068 10.3743193 -2.3777305 8.74947252 -2.0625 7.125 C-1.88847656 6.22007813 -1.71445312 5.31515625 -1.53515625 4.3828125 C-1 2 -1 2 0 0 Z " fill="#70797A" transform="translate(28,66)"/>
<path d="M0 0 C1.39195915 4.17587745 -0.17676781 6.13474776 -2 10 C-4.29013653 6.5647952 -4.17842973 5.014669 -4 1 C-3.01 1.33 -2.02 1.66 -1 2 C-0.67 1.34 -0.34 0.68 0 0 Z " fill="#5F6366" transform="translate(388,262)"/>
<path d="M0 0 C0.33 0.99 0.66 1.98 1 3 C0.34 3.66 -0.32 4.32 -1 5 C-4 3 -4 3 -5 2 C-5.99 2.495 -5.99 2.495 -7 3 C-7.66 2.34 -8.32 1.68 -9 1 C-6.04335481 -0.4783226 -3.25770263 -0.06032783 0 0 Z " fill="#0E191A" transform="translate(121,323)"/>
<path d="M0 0 C2.31 0.66 4.62 1.32 7 2 C7 3.98 7 5.96 7 8 C4.35247996 5.42215154 2.05567935 3.08351902 0 0 Z " fill="#626A6B" transform="translate(56,314)"/>
<path d="M0 0 C5.29441695 -0.50423019 7.81413519 0.81076967 12 4 C11.01 4.495 11.01 4.495 10 5 C7.375 4.0625 7.375 4.0625 5 3 C5 2.34 5 1.68 5 1 C3.68 1 2.36 1 1 1 C0.67 1.66 0.34 2.32 0 3 C0 2.01 0 1.02 0 0 Z " fill="#686F72" transform="translate(348,0)"/>
<path d="M0 0 C1.32 0.33 2.64 0.66 4 1 C3.8125 2.8125 3.8125 2.8125 3 5 C0.4375 6.75 0.4375 6.75 -2 8 C-2 7.01 -2 6.02 -2 5 C-1.34 4.67 -0.68 4.34 0 4 C0 2.68 0 1.36 0 0 Z " fill="#50585C" transform="translate(337,329)"/>
<path d="M0 0 C0.99 0.33 1.98 0.66 3 1 C3 2.98 3 4.96 3 7 C1.68 6.67 0.36 6.34 -1 6 C-1.042721 4.33388095 -1.04063832 2.66617115 -1 1 C-0.67 0.67 -0.34 0.34 0 0 Z " fill="#0F1B1E" transform="translate(44,288)"/>
<path d="M0 0 C0.66 0.33 1.32 0.66 2 1 C2.625 3.0625 2.625 3.0625 3 5 C2.01 5.33 1.02 5.66 0 6 C-0.33 6.99 -0.66 7.98 -1 9 C-1.625 5.625 -1.625 5.625 -2 2 C-1.34 1.34 -0.68 0.68 0 0 Z " fill="#1E2429" transform="translate(106,183)"/>
<path d="M0 0 C0.66 1.32 1.32 2.64 2 4 C2.66 3.67 3.32 3.34 4 3 C4.33 3.99 4.66 4.98 5 6 C4.01 6.495 4.01 6.495 3 7 C2.01 6.67 1.02 6.34 0 6 C-0.33 5.34 -0.66 4.68 -1 4 C-1.99 4.66 -2.98 5.32 -4 6 C-2.84826645 3.53199953 -1.95216435 1.95216435 0 0 Z " fill="#4E5A5B" transform="translate(290,49)"/>
<path d="M0 0 C2.18975773 3.28463659 2.99806563 6.20696275 4 10 C3.34 9.67 2.68 9.34 2 9 C2 8.34 2 7.68 2 7 C1.34 7 0.68 7 0 7 C-1.04449911 3.86650268 -0.93423645 3.01031744 0 0 Z M-2 5 C-2 8 -2 8 -2 8 Z " fill="#6B7275" transform="translate(381,44)"/>
<path d="M0 0 C0.66 0.33 1.32 0.66 2 1 C2 1.66 2 2.32 2 3 C1.34 3 0.68 3 0 3 C0 3.66 0 4.32 0 5 C0.66 5.33 1.32 5.66 2 6 C1.01 7.485 1.01 7.485 0 9 C-0.33 8.34 -0.66 7.68 -1 7 C-1.99 7.495 -1.99 7.495 -3 8 C-3.33 6.68 -3.66 5.36 -4 4 C-3.34 4 -2.68 4 -2 4 C-1.34 2.68 -0.68 1.36 0 0 Z " fill="#10171B" transform="translate(301,38)"/>
<path d="M0 0 C0.33 0.66 0.66 1.32 1 2 C1.66 2.33 2.32 2.66 3 3 C2.01 3 1.02 3 0 3 C0 3.99 0 4.98 0 6 C0.99 5.67 1.98 5.34 3 5 C3 5.66 3 6.32 3 7 C2.01 7 1.02 7 0 7 C-0.33 7.66 -0.66 8.32 -1 9 C-1.66 8.67 -2.32 8.34 -3 8 C-1.125 2.25 -1.125 2.25 0 0 Z " fill="#5E6568" transform="translate(42,30)"/>
<path d="M0 0 C1.32 0.66 2.64 1.32 4 2 C3.0409375 2.433125 3.0409375 2.433125 2.0625 2.875 C-0.15206079 3.82823451 -0.15206079 3.82823451 -1 6 C-1.99 5.34 -2.98 4.68 -4 4 C-2.68 2.68 -1.36 1.36 0 0 Z " fill="#0F161A" transform="translate(329,10)"/>
<path d="M0 0 C3.96 0 7.92 0 12 0 C11.67 0.66 11.34 1.32 11 2 C4.95724466 3.36817102 4.95724466 3.36817102 1.5625 2.0625 C1.046875 1.711875 0.53125 1.36125 0 1 C0 0.67 0 0.34 0 0 Z " fill="#FFFFFF" transform="translate(82,0)"/>
<path d="M0 0 C1 2 1 2 0.125 4.9375 C-0.24625 5.948125 -0.6175 6.95875 -1 8 C-1.33 8.99 -1.66 9.98 -2 11 C-3.25 9.4375 -3.25 9.4375 -4 7 C-2.93237266 4.42998985 -1.53455057 2.3469597 0 0 Z " fill="#1E2629" transform="translate(110,171)"/>
<path d="M0 0 C1.125 1.75 1.125 1.75 2 4 C1.125 6.25 1.125 6.25 0 8 C0 7.34 0 6.68 0 6 C-0.66 6 -1.32 6 -2 6 C-2 6.66 -2 7.32 -2 8 C-2.66 7.67 -3.32 7.34 -4 7 C-2.68 4.69 -1.36 2.38 0 0 Z " fill="#232B2E" transform="translate(261,170)"/>
<path d="M0 0 C2.475 0.99 2.475 0.99 5 2 C4.01 2.495 4.01 2.495 3 3 C3 3.66 3 4.32 3 5 C0.03 4.505 0.03 4.505 -3 4 C-2.01 2.68 -1.02 1.36 0 0 Z " fill="#292E32" transform="translate(125,91)"/>
<path d="M0 0 C0.66 0.99 1.32 1.98 2 3 C1.01 3.33 0.02 3.66 -1 4 C-2.21869929 6.50447516 -2.21869929 6.50447516 -3 9 C-3.99 8.67 -4.98 8.34 -6 8 C-4.55746343 4.63408134 -2.66735273 2.48952921 0 0 Z " fill="#717879" transform="translate(303,34)"/>
<path d="M0 0 C0 0.66 0 1.32 0 2 C-2.31 1.67 -4.62 1.34 -7 1 C-7.33 2.65 -7.66 4.3 -8 6 C-8.99 5.01 -9.98 4.02 -11 3 C-8.21756596 -1.17365106 -4.53441502 -0.22300402 0 0 Z " fill="#4B5355" transform="translate(72,0)"/>
<path d="M0 0 C1.125 3.75 1.125 3.75 0 6 C-4.875 4.25 -4.875 4.25 -6 2 C-4.7934375 1.7834375 -4.7934375 1.7834375 -3.5625 1.5625 C-1.07896294 1.25864751 -1.07896294 1.25864751 0 0 Z " fill="#0E171B" transform="translate(95,340)"/>
<path d="M0 0 C1.32 0.66 2.64 1.32 4 2 C2.68 3.32 1.36 4.64 0 6 C-0.99 5.67 -1.98 5.34 -3 5 C-3 3 -3 3 -1.5 1.375 C-1.005 0.92125 -0.51 0.4675 0 0 Z " fill="#60686B" transform="translate(349,320)"/>
<path d="M0 0 C3.96 1.98 3.96 1.98 8 4 C8 4.33 8 4.66 8 5 C5.36 5 2.72 5 0 5 C0 3.35 0 1.7 0 0 Z " fill="#242C2D" transform="translate(112,318)"/>
<path d="M0 0 C0.625 1.875 0.625 1.875 1 4 C0.34 4.66 -0.32 5.32 -1 6 C-3.125 5.625 -3.125 5.625 -5 5 C-3.35 3.35 -1.7 1.7 0 0 Z " fill="#12181E" transform="translate(342,282)"/>
<path d="M0 0 C0.99 0 1.98 0 3 0 C2.39816251 2.02045442 1.72693904 4.02111039 1 6 C0.01 6.495 0.01 6.495 -1 7 C-1.33 5.35 -1.66 3.7 -2 2 C-1.34 2 -0.68 2 0 2 C0 1.34 0 0.68 0 0 Z " fill="#5C6365" transform="translate(378,281)"/>
<path d="M0 0 C1.65 0.33 3.3 0.66 5 1 C2.23776722 3.76223278 -0.20706617 3.57856291 -4 4 C-4.33 3.34 -4.66 2.68 -5 2 C-3.35 1.67 -1.7 1.34 0 1 C0 0.67 0 0.34 0 0 Z " fill="#666E6D" transform="translate(279,363)"/>
<path d="M0 0 C6.625 -0.25 6.625 -0.25 10 2 C6.68955197 3.10348268 4.34493684 2.99444068 1 2 C0.67 1.34 0.34 0.68 0 0 Z " fill="#464F4E" transform="translate(103,352)"/>
<path d="M0 0 C0.33 1.32 0.66 2.64 1 4 C-1.375 4.625 -1.375 4.625 -4 5 C-4.66 4.34 -5.32 3.68 -6 3 C-6 2.34 -6 1.68 -6 1 C-4.7934375 1.0309375 -4.7934375 1.0309375 -3.5625 1.0625 C-1.06645115 1.29633621 -1.06645115 1.29633621 0 0 Z " fill="#1A2729" transform="translate(136,330)"/>
<path d="M0 0 C1.0625 1.875 1.0625 1.875 2 4 C1.67 4.66 1.34 5.32 1 6 C-1.0625 6.625 -1.0625 6.625 -3 7 C-1.125 1.125 -1.125 1.125 0 0 Z " fill="#24292E" transform="translate(354,258)"/>
<path d="M0 0 C0.66 0 1.32 0 2 0 C2 0.66 2 1.32 2 2 C2.66 2 3.32 2 4 2 C4 2.66 4 3.32 4 4 C5.45833358 5.62514468 5.45833358 5.62514468 7 7 C5.35 6.67 3.7 6.34 2 6 C1.34 4.02 0.68 2.04 0 0 Z " fill="#0E181A" transform="translate(116,213)"/>
<path d="M0 0 C2 2 2 2 2.1953125 3.9453125 C2.13020833 5.96354167 2.06510417 7.98177083 2 10 C1.01 9.67 0.02 9.34 -1 9 C-1.125 2.25 -1.125 2.25 0 0 Z " fill="#EEF1F0" transform="translate(15,124)"/>
<path d="M0 0 C2.97 1.98 2.97 1.98 6 4 C5.34 4.66 4.68 5.32 4 6 C1.875 5.625 1.875 5.625 0 5 C0 3.35 0 1.7 0 0 Z " fill="#222B2E" transform="translate(116,38)"/>
<path d="M0 0 C1.37245106 2.74490212 0.93580311 4.12060581 0 7 C-2.0625 8.3125 -2.0625 8.3125 -4 9 C-2.94124926 5.59687262 -1.99097846 2.98646769 0 0 Z " fill="#7D8285" transform="translate(49,17)"/>
<path d="M0 0 C0.66 0.33 1.32 0.66 2 1 C1.67 1.66 1.34 2.32 1 3 C1.99 3.33 2.98 3.66 4 4 C2 5 2 5 0.0546875 4.44140625 C-0.66460937 4.15136719 -1.38390625 3.86132812 -2.125 3.5625 C-2.84945312 3.27503906 -3.57390625 2.98757813 -4.3203125 2.69140625 C-5.15175781 2.34916016 -5.15175781 2.34916016 -6 2 C-5.38125 1.855625 -4.7625 1.71125 -4.125 1.5625 C-1.96741678 1.06847775 -1.96741678 1.06847775 0 0 Z " fill="#747A7C" transform="translate(130,361)"/>
<path d="M0 0 C2.34942482 2.13584075 3.69579377 4.11211477 5 7 C5.33 7.66 5.66 8.32 6 9 C2.66476748 7.61990379 0.81392049 6.15049348 -1 3 C-0.67 2.01 -0.34 1.02 0 0 Z " fill="#7B8383" transform="translate(68,323)"/>
<path d="M0 0 C2.4375 0.625 2.4375 0.625 5 2 C5.8125 5.125 5.8125 5.125 6 8 C1.125 3.375 1.125 3.375 0 0 Z " fill="#727679" transform="translate(49,304)"/>
<path d="M0 0 C0.66 1.32 1.32 2.64 2 4 C1.01 5.32 0.02 6.64 -1 8 C-1.99 7.34 -2.98 6.68 -4 6 C-2.68 4.02 -1.36 2.04 0 0 Z " fill="#2C3135" transform="translate(344,276)"/>
<path d="M0 0 C0.99 0.33 1.98 0.66 3 1 C2.67 1.99 2.34 2.98 2 4 C-0.97 3.505 -0.97 3.505 -4 3 C-2.1875 1.4375 -2.1875 1.4375 0 0 Z " fill="#273434" transform="translate(274,160)"/>
<path d="M0 0 C0 0.66 0 1.32 0 2 C-2.64 2.66 -5.28 3.32 -8 4 C-8 3.01 -8 2.02 -8 1 C-5.10765685 0.17361624 -3.11257569 0 0 0 Z " fill="#0F181C" transform="translate(161,83)"/>
<path d="M0 0 C-0.33 0.99 -0.66 1.98 -1 3 C-2.65 3 -4.3 3 -6 3 C-6 2.01 -6 1.02 -6 0 C-3.50907189 -1.24546405 -2.58919267 -0.7767578 0 0 Z " fill="#0F191A" transform="translate(166,369)"/>
<path d="M0 0 C1.89213369 2.38573379 3.02391783 4.07175348 4 7 C3.34 7.66 2.68 8.32 2 9 C-1.07692308 4.56923077 -1.07692308 4.56923077 -0.6875 1.6875 C-0.460625 1.130625 -0.23375 0.57375 0 0 Z " fill="#636D6F" transform="translate(42,289)"/>
<path d="M0 0 C0.33 2.31 0.66 4.62 1 7 C0.01 7.495 0.01 7.495 -1 8 C-1.66 5.69 -2.32 3.38 -3 1 C-1 0 -1 0 0 0 Z " fill="#11191B" transform="translate(356,65)"/>
<path d="M0 0 C0.66 0.33 1.32 0.66 2 1 C2.625 3.0625 2.625 3.0625 3 5 C2.01 5.33 1.02 5.66 0 6 C-0.99 5.01 -1.98 4.02 -3 3 C-2.01 2.01 -1.02 1.02 0 0 Z " fill="#545B5C" transform="translate(335,3)"/>
<path d="M0 0 C4.31392226 0.4793247 6.16569547 1.7457985 9 5 C7.68428397 4.7452486 6.37239624 4.47065859 5.0625 4.1875 C4.33160156 4.03667969 3.60070312 3.88585937 2.84765625 3.73046875 C2.23792969 3.48941406 1.62820312 3.24835938 1 3 C0.67 2.01 0.34 1.02 0 0 Z " fill="#777F82" transform="translate(75,0)"/>
<path d="M0 0 C3.3 0 6.6 0 10 0 C8 2 8 2 4.375 2.125 C3.26125 2.08375 2.1475 2.0425 1 2 C0.67 1.34 0.34 0.68 0 0 Z " fill="#FFFFFF" transform="translate(358,0)"/>
<path d="M0 0 C1.76462683 3.08809695 2 4.23312136 2 8 C1.34 8 0.68 8 0 8 C0 5.36 0 2.72 0 0 Z " fill="#FFFFFF" transform="translate(12,150)"/>
<path d="M0 0 C1.65 0 3.3 0 5 0 C4.67 0.66 4.34 1.32 4 2 C2.35 2 0.7 2 -1 2 C-0.67 1.34 -0.34 0.68 0 0 Z " fill="#FFFFFF" transform="translate(203,379)"/>
<path d="M0 0 C0.66 0 1.32 0 2 0 C2.66 1.98 3.32 3.96 4 6 C3.34 6 2.68 6 2 6 C1.34 4.02 0.68 2.04 0 0 Z " fill="#FFFFFF" transform="translate(29,272)"/>
<path d="M0 0 C0.33 0 0.66 0 1 0 C1.33 2.64 1.66 5.28 2 8 C1.34 7.67 0.68 7.34 0 7 C0 4.69 0 2.38 0 0 Z " fill="#FFFFFF" transform="translate(19,233)"/>
<path d="M0 0 C1.32 0 2.64 0 4 0 C4 0.66 4 1.32 4 2 C2.35 2 0.7 2 -1 2 C-0.67 1.34 -0.34 0.68 0 0 Z " fill="#FFFFFF" transform="translate(326,0)"/>
<path d="M0 0 C0.33 0 0.66 0 1 0 C1 2.64 1 5.28 1 8 C0.67 8 0.34 8 0 8 C0 5.36 0 2.72 0 0 Z " fill="#FFFFFF" transform="translate(15,204)"/>
<path d="M0 0 C1.32 0.33 2.64 0.66 4 1 C2.68 1.33 1.36 1.66 0 2 C0 1.34 0 0.68 0 0 Z " fill="#FFFFFF" transform="translate(196,378)"/>
<path d="M0 0 C0.99 0 1.98 0 3 0 C3 0.99 3 1.98 3 3 C2.34 3 1.68 3 1 3 C0.67 2.01 0.34 1.02 0 0 Z " fill="#FFFFFF" transform="translate(400,228)"/>
<path d="M0 0 C0.99 1.485 0.99 1.485 2 3 C1.34 3.66 0.68 4.32 0 5 C0 3.35 0 1.7 0 0 Z " fill="#FFFFFF" transform="translate(16,219)"/>
<path d="M0 0 C1.98 0.99 1.98 0.99 4 2 C2.68 2 1.36 2 0 2 C0 1.34 0 0.68 0 0 Z " fill="#FFFFFF" transform="translate(403,0)"/>
<path d="M0 0 C0.66 0 1.32 0 2 0 C1.67 0.99 1.34 1.98 1 3 C0.67 2.01 0.34 1.02 0 0 Z " fill="#FFFFFF" transform="translate(333,0)"/>
<path d="M0 0 C0.66 0 1.32 0 2 0 C1.67 0.99 1.34 1.98 1 3 C0.67 2.01 0.34 1.02 0 0 Z " fill="#FFFFFF" transform="translate(22,251)"/>
<path d="M0 0 C1 4 1 4 1 4 Z " fill="#FFFFFF" transform="translate(21,243)"/>
<path d="M0 0 C1 4 1 4 1 4 Z " fill="#FFFFFF" transform="translate(18,229)"/>
<path d="M0 0 C0.66 0 1.32 0 2 0 C2 0.66 2 1.32 2 2 C1.34 2 0.68 2 0 2 C0 1.34 0 0.68 0 0 Z " fill="#FFFFFF" transform="translate(0,0)"/>
<path d="M0 0 C0.33 0.66 0.66 1.32 1 2 C0.34 1.67 -0.32 1.34 -1 1 C-0.67 0.67 -0.34 0.34 0 0 Z " fill="#FFFFFF" transform="translate(413,383)"/>
<path d="M0 0 C3 1 3 1 3 1 Z " fill="#FFFFFF" transform="translate(308,383)"/>
<path d="M0 0 C3 1 3 1 3 1 Z " fill="#FFFFFF" transform="translate(291,383)"/>
<path d="M0 0 C3 1 3 1 3 1 Z " fill="#FFFFFF" transform="translate(101,383)"/>
<path d="M0 0 C3 1 3 1 3 1 Z " fill="#FFFFFF" transform="translate(224,378)"/>
<path d="M0 0 C3 1 3 1 3 1 Z " fill="#FFFFFF" transform="translate(217,378)"/>
<path d="" fill="#FFFFFF" transform="translate(0,0)"/>
<path d="M0 0 C0.66 0 1.32 0 2 0 C1.67 0.66 1.34 1.32 1 2 C0.67 1.34 0.34 0.68 0 0 Z " fill="#FFFFFF" transform="translate(32,279)"/>
<path d="" fill="#FFFFFF" transform="translate(0,0)"/>
<path d="" fill="#FFFFFF" transform="translate(0,0)"/>
<path d="" fill="#FFFFFF" transform="translate(0,0)"/>
<path d="M0 0 C3 1 3 1 3 1 Z " fill="#FFFFFF" transform="translate(165,46)"/>
<path d="M0 0 C3 1 3 1 3 1 Z " fill="#FFFFFF" transform="translate(183,44)"/>
<path d="M0 0 C3 1 3 1 3 1 Z " fill="#FFFFFF" transform="translate(215,43)"/>
<path d="M0 0 C0.99 0.495 0.99 0.495 2 1 C1.01 1.495 1.01 1.495 0 2 C0 1.34 0 0.68 0 0 Z " fill="#FFFFFF" transform="translate(412,0)"/>
<path d="M0 0 C0.33 0.66 0.66 1.32 1 2 C0.34 1.67 -0.32 1.34 -1 1 C-0.67 0.67 -0.34 0.34 0 0 Z " fill="#FFFFFF" transform="translate(410,0)"/>
<path d="M0 0 C2 1 2 1 2 1 Z " fill="#FFFFFF" transform="translate(313,383)"/>
<path d="M0 0 C2 1 2 1 2 1 Z " fill="#FFFFFF" transform="translate(304,383)"/>
<path d="M0 0 C2 1 2 1 2 1 Z " fill="#FFFFFF" transform="translate(300,383)"/>
<path d="M0 0 C2 1 2 1 2 1 Z " fill="#FFFFFF" transform="translate(296,383)"/>
<path d="M0 0 C2 1 2 1 2 1 Z " fill="#FFFFFF" transform="translate(220,383)"/>
<path d="M0 0 C2 1 2 1 2 1 Z " fill="#FFFFFF" transform="translate(203,383)"/>
<path d="M0 0 C2 1 2 1 2 1 Z " fill="#FFFFFF" transform="translate(194,383)"/>
<path d="M0 0 C2 1 2 1 2 1 Z " fill="#FFFFFF" transform="translate(127,383)"/>
<path d="M0 0 C2 1 2 1 2 1 Z " fill="#FFFFFF" transform="translate(123,383)"/>
<path d="M0 0 C2 1 2 1 2 1 Z " fill="#FFFFFF" transform="translate(118,383)"/>
<path d="M0 0 C2 1 2 1 2 1 Z " fill="#FFFFFF" transform="translate(114,383)"/>
<path d="M0 0 C2 1 2 1 2 1 Z " fill="#FFFFFF" transform="translate(110,383)"/>
<path d="M0 0 C2 1 2 1 2 1 Z " fill="#FFFFFF" transform="translate(106,383)"/>
<path d="M0 0 C2 1 2 1 2 1 Z " fill="#FFFFFF" transform="translate(0,383)"/>
<path d="M0 0 C2 1 2 1 2 1 Z " fill="#FFFFFF" transform="translate(177,377)"/>
<path d="M0 0 C2 1 2 1 2 1 Z " fill="#FFFFFF" transform="translate(28,270)"/>
<path d="M0 0 C2 1 2 1 2 1 Z " fill="#FFFFFF" transform="translate(27,267)"/>
<path d="" fill="#FFFFFF" transform="translate(0,0)"/>
<path d="" fill="#FFFFFF" transform="translate(0,0)"/>
<path d="M0 0 C2 1 2 1 2 1 Z " fill="#FFFFFF" transform="translate(407,228)"/>
<path d="M0 0 C2 1 2 1 2 1 Z " fill="#FFFFFF" transform="translate(135,55)"/>
<path d="M0 0 C2 1 2 1 2 1 Z " fill="#FFFFFF" transform="translate(137,54)"/>
<path d="M0 0 C2 1 2 1 2 1 Z " fill="#FFFFFF" transform="translate(146,51)"/>
<path d="M0 0 C2 1 2 1 2 1 Z " fill="#FFFFFF" transform="translate(158,48)"/>
<path d="M0 0 C2 1 2 1 2 1 Z " fill="#FFFFFF" transform="translate(331,4)"/>
<path d="M0 0 C2 1 2 1 2 1 Z " fill="#FFFFFF" transform="translate(289,1)"/>
<path d="M0 0 C2 1 2 1 2 1 Z " fill="#FFFFFF" transform="translate(285,1)"/>
<path d="M0 0 C2 1 2 1 2 1 Z " fill="#FFFFFF" transform="translate(281,1)"/>
<path d="M0 0 C2 1 2 1 2 1 Z " fill="#FFFFFF" transform="translate(277,1)"/>
<path d="M0 0 C2 1 2 1 2 1 Z " fill="#FFFFFF" transform="translate(125,1)"/>
<path d="M0 0 C2 1 2 1 2 1 Z " fill="#FFFFFF" transform="translate(36,1)"/>
<path d="M0 0 C2 1 2 1 2 1 Z " fill="#FFFFFF" transform="translate(32,1)"/>
<path d="M0 0 C2 1 2 1 2 1 Z " fill="#FFFFFF" transform="translate(19,1)"/>
<path d="M0 0 C2 1 2 1 2 1 Z " fill="#FFFFFF" transform="translate(387,0)"/>
<path d="" fill="#FFFFFF" transform="translate(0,0)"/>
<path d="" fill="#FFFFFF" transform="translate(0,0)"/>
<path d="" fill="#FFFFFF" transform="translate(0,0)"/>
<path d="" fill="#FFFFFF" transform="translate(0,0)"/>
<path d="" fill="#FFFFFF" transform="translate(0,0)"/>
<path d="" fill="#FFFFFF" transform="translate(0,0)"/>
<path d="" fill="#FFFFFF" transform="translate(0,0)"/>
<path d="" fill="#FFFFFF" transform="translate(0,0)"/>
<path d="" fill="#FFFFFF" transform="translate(0,0)"/>
<path d="" fill="#FFFFFF" transform="translate(0,0)"/>
<path d="" fill="#FFFFFF" transform="translate(0,0)"/>
<path d="" fill="#FFFFFF" transform="translate(0,0)"/>
<path d="" fill="#FFFFFF" transform="translate(0,0)"/>
<path d="" fill="#FFFFFF" transform="translate(0,0)"/>
<path d="" fill="#FFFFFF" transform="translate(0,0)"/>
<path d="" fill="#FFFFFF" transform="translate(0,0)"/>
<path d="" fill="#FFFFFF" transform="translate(0,0)"/>
<path d="" fill="#FFFFFF" transform="translate(0,0)"/>
<path d="" fill="#FFFFFF" transform="translate(0,0)"/>
<path d="" fill="#FFFFFF" transform="translate(0,0)"/>
<path d="" fill="#FFFFFF" transform="translate(0,0)"/>
<path d="" fill="#FFFFFF" transform="translate(0,0)"/>
<path d="" fill="#FFFFFF" transform="translate(0,0)"/>
<path d="" fill="#FFFFFF" transform="translate(0,0)"/>
<path d="" fill="#FFFFFF" transform="translate(0,0)"/>
<path d="" fill="#FFFFFF" transform="translate(0,0)"/>
<path d="" fill="#FFFFFF" transform="translate(0,0)"/>
<path d="" fill="#FFFFFF" transform="translate(0,0)"/>
<path d="" fill="#FFFFFF" transform="translate(0,0)"/>
<path d="" fill="#FFFFFF" transform="translate(0,0)"/>
<path d="" fill="#FFFFFF" transform="translate(0,0)"/>
<path d="" fill="#FFFFFF" transform="translate(0,0)"/>
<path d="" fill="#FFFFFF" transform="translate(0,0)"/>
<path d="" fill="#FFFFFF" transform="translate(0,0)"/>
<path d="" fill="#FFFFFF" transform="translate(0,0)"/>
<path d="" fill="#FFFFFF" transform="translate(0,0)"/>
<path d="" fill="#FFFFFF" transform="translate(0,0)"/>
<path d="" fill="#FFFFFF" transform="translate(0,0)"/>
<path d="" fill="#FFFFFF" transform="translate(0,0)"/>
<path d="" fill="#FFFFFF" transform="translate(0,0)"/>
<path d="" fill="#FFFFFF" transform="translate(0,0)"/>
<path d="" fill="#FFFFFF" transform="translate(0,0)"/>
<path d="" fill="#FFFFFF" transform="translate(0,0)"/>
<path d="" fill="#FFFFFF" transform="translate(0,0)"/>
<path d="" fill="#FFFFFF" transform="translate(0,0)"/>
<path d="" fill="#FFFFFF" transform="translate(0,0)"/>
<path d="" fill="#FFFFFF" transform="translate(0,0)"/>
</svg>
